<svg width="343" height="60" viewBox="0 0 343 60" fill="none" xmlns="http://www.w3.org/2000/svg">
<g clip-path="url(#clip0_465_83)">
<path d="M42.7266 2.65381C52.8111 7.43068 59.9764 17.7806 59.9764 29.9881C59.9764 46.4418 46.442 59.9762 29.9883 59.9762C24.9461 59.9762 20.1692 58.6493 16.1885 56.5263C17.7808 56.7917 19.6384 57.057 21.2307 57.057C29.9883 57.057 37.6844 53.6071 43.5228 47.7687C49.0958 42.1957 52.5458 34.2342 52.5458 25.742C52.5458 16.9844 49.0958 9.28835 43.5228 3.44995C43.2574 3.18457 42.992 2.91919 42.7266 2.65381Z" fill="white"/>
<path d="M48.2995 35.0303C46.7072 39.2764 44.5841 42.9917 41.3995 45.9109C36.3573 50.9532 29.192 54.1378 21.2305 54.1378C16.9844 54.1378 12.7383 53.3416 9.02298 51.4839C3.71534 46.4417 0.265382 39.2764 0 31.3149C1.06153 32.9072 2.12305 34.2341 3.44996 35.561C9.02298 41.3994 16.9844 44.8494 25.742 44.8494C34.2342 44.8494 42.1957 41.3994 47.7687 35.561C48.0341 35.561 48.0341 35.2957 48.2995 35.0303Z" fill="white"/>
<path d="M29.9881 0C31.0497 0 32.1112 0 33.1727 0C26.8035 1.32691 21.2305 4.24611 16.719 8.75759C11.146 14.3306 7.69607 22.2921 7.69607 30.7843C7.69607 32.6419 7.69607 34.2342 8.22683 36.0919C7.1653 35.2958 6.36916 34.4996 5.30763 33.7035C3.18458 31.5804 1.59229 28.9266 0 26.2728C1.85767 11.4114 14.596 0 29.9881 0Z" fill="white"/>
<path d="M92.4607 21.0646C97.2828 21.0646 101.344 23.095 103.831 27.3587L97.7396 30.252C96.4199 29.1353 95.354 28.1201 92.5622 28.1201C89.5167 28.1201 86.4204 30.455 86.4204 34.7695C86.4204 39.0333 89.5167 41.2667 92.5622 41.2667C95.354 41.2667 96.4199 40.353 97.7396 39.2363L103.932 42.1296C101.344 46.3933 97.3843 48.3221 92.4607 48.3221C86.5727 48.3221 78.6543 44.1092 78.6543 34.7695C78.6543 25.5822 86.5727 21.0646 92.4607 21.0646ZM116.064 12.0295V18.7805H108.044V12.0295H116.064ZM116.064 21.5215V47.9161H108.044V21.5215H116.064ZM138.194 21.1154C138.905 21.1154 139.616 21.1154 140.276 21.2677V28.9322C139.666 28.78 138.956 28.78 138.448 28.78C133.575 28.78 129.667 32.2823 129.261 37.1552V47.9161H121.241V21.5215H129.261V27.9678C130.479 24.0086 133.525 21.1154 138.194 21.1154ZM157.381 21.0646C162.203 21.0646 166.264 23.095 168.751 27.3587L162.66 30.252C161.341 29.1353 160.275 28.1201 157.483 28.1201C154.437 28.1201 151.341 30.455 151.341 34.7695C151.341 39.0333 154.437 41.2667 157.483 41.2667C160.275 41.2667 161.341 40.353 162.66 39.2363L168.853 42.1296C166.264 46.3933 162.305 48.3221 157.381 48.3221C151.493 48.3221 143.575 44.1092 143.575 34.7695C143.575 25.5822 151.493 21.0646 157.381 21.0646ZM180.984 12.0295V47.9161H172.964V12.0295H180.984ZM199.257 21.0646C205.247 21.0646 213.622 25.5822 211.947 37.5105H193.522C194.435 40.2515 196.821 41.6727 200.019 41.6727C203.267 41.6727 204.283 40.9621 206.11 40.2007L210.526 44.4645C208.191 46.7486 205.044 48.4237 199.714 48.4237C193.166 48.4237 185.349 43.9061 185.349 34.8203C185.349 25.5822 193.268 21.0646 199.257 21.0646ZM199.257 27.9171C196.973 27.9171 194.638 29.2368 193.623 31.8763H204.841C204.029 29.2368 201.542 27.9171 199.257 27.9171ZM245.905 21.4199L234.078 47.9161H227.023L215.196 21.4199H223.165L230.576 38.3734L237.936 21.4199H245.905ZM268.746 21.5215H276.766V47.9161H268.746V45.2766C268.391 46.1903 266.005 48.4237 261.945 48.4237C255.904 48.4237 248.95 44.1092 248.95 34.668C248.95 25.5822 255.904 21.0646 261.945 21.0646C266.005 21.0646 268.391 23.3995 268.746 23.9579V21.5215ZM263.112 41.3682C266.411 41.3682 269.102 39.084 269.102 34.668C269.102 30.4043 266.411 28.1201 263.112 28.1201C259.66 28.1201 256.716 30.455 256.716 34.668C256.716 39.0333 259.66 41.3682 263.112 41.3682ZM291.588 48.3221C286.664 48.3221 281.639 45.0228 281.639 36.6476V21.5215H289.659V36.0892C289.659 40.0992 291.029 41.3682 293.567 41.3682C297.171 41.3682 299.252 37.8658 299.76 36.343V21.5215H307.78V47.9161H299.76V43.3478C299.252 44.6167 296.562 48.3221 291.588 48.3221ZM320.977 12.0295V47.9161H312.957V12.0295H320.977ZM338.997 41.2159C340.418 41.2159 341.433 41.0129 342.55 40.7083V47.3577C341.433 47.8653 339.606 48.2206 336.916 48.2206C332.499 48.2206 328.794 46.7486 328.794 38.6272V28.1201H325.089V21.5215H328.794V15.3289H336.814V21.5215H342.448V28.1201H336.814V38.6272C336.814 39.7946 337.119 41.2159 338.997 41.2159Z" fill="white"/>
</g>
<defs>
<clipPath id="clip0_465_83">
<rect width="342.55" height="59.9762" fill="white"/>
</clipPath>
</defs>
</svg>
