<svg width="386" height="92" viewBox="0 0 386 92" fill="none" xmlns="http://www.w3.org/2000/svg">
<rect width="386" height="92" rx="20" fill="black"/>
<g clip-path="url(#clip0_462_82)">
<path d="M64.7266 19.6538C74.8111 24.4307 81.9764 34.7806 81.9764 46.9881C81.9764 63.4418 68.442 76.9762 51.9883 76.9762C46.9461 76.9762 42.1692 75.6493 38.1885 73.5263C39.7808 73.7917 41.6384 74.057 43.2307 74.057C51.9883 74.057 59.6844 70.6071 65.5228 64.7687C71.0958 59.1957 74.5458 51.2342 74.5458 42.742C74.5458 33.9844 71.0958 26.2884 65.5228 20.45C65.2574 20.1846 64.992 19.9192 64.7266 19.6538Z" fill="white"/>
<path d="M70.2995 52.0303C68.7072 56.2764 66.5841 59.9917 63.3995 62.9109C58.3573 67.9532 51.192 71.1378 43.2305 71.1378C38.9844 71.1378 34.7383 70.3416 31.023 68.4839C25.7153 63.4417 22.2654 56.2764 22 48.3149C23.0615 49.9072 24.1231 51.2341 25.45 52.561C31.023 58.3994 38.9844 61.8494 47.742 61.8494C56.2342 61.8494 64.1957 58.3994 69.7687 52.561C70.0341 52.561 70.0341 52.2957 70.2995 52.0303Z" fill="white"/>
<path d="M51.9881 17C53.0497 17 54.1112 17 55.1727 17C48.8035 18.3269 43.2305 21.2461 38.719 25.7576C33.146 31.3306 29.6961 39.2921 29.6961 47.7843C29.6961 49.6419 29.6961 51.2342 30.2268 53.0919C29.1653 52.2958 28.3692 51.4996 27.3076 50.7035C25.1846 48.5804 23.5923 45.9266 22 43.2728C23.8577 28.4114 36.596 17 51.9881 17Z" fill="white"/>
<path d="M114.461 38.0646C119.283 38.0646 123.344 40.095 125.831 44.3587L119.74 47.252C118.42 46.1353 117.354 45.1201 114.562 45.1201C111.517 45.1201 108.42 47.455 108.42 51.7695C108.42 56.0333 111.517 58.2667 114.562 58.2667C117.354 58.2667 118.42 57.353 119.74 56.2363L125.932 59.1296C123.344 63.3933 119.384 65.3221 114.461 65.3221C108.573 65.3221 100.654 61.1092 100.654 51.7695C100.654 42.5822 108.573 38.0646 114.461 38.0646ZM138.064 29.0295V35.7805H130.044V29.0295H138.064ZM138.064 38.5215V64.9161H130.044V38.5215H138.064ZM160.194 38.1154C160.905 38.1154 161.616 38.1154 162.276 38.2677V45.9322C161.666 45.78 160.956 45.78 160.448 45.78C155.575 45.78 151.667 49.2823 151.261 54.1552V64.9161H143.241V38.5215H151.261V44.9678C152.479 41.0086 155.525 38.1154 160.194 38.1154ZM179.381 38.0646C184.203 38.0646 188.264 40.095 190.751 44.3587L184.66 47.252C183.341 46.1353 182.275 45.1201 179.483 45.1201C176.437 45.1201 173.341 47.455 173.341 51.7695C173.341 56.0333 176.437 58.2667 179.483 58.2667C182.275 58.2667 183.341 57.353 184.66 56.2363L190.853 59.1296C188.264 63.3933 184.305 65.3221 179.381 65.3221C173.493 65.3221 165.575 61.1092 165.575 51.7695C165.575 42.5822 173.493 38.0646 179.381 38.0646ZM202.984 29.0295V64.9161H194.964V29.0295H202.984ZM221.257 38.0646C227.247 38.0646 235.622 42.5822 233.947 54.5105H215.522C216.435 57.2515 218.821 58.6727 222.019 58.6727C225.267 58.6727 226.283 57.9621 228.11 57.2007L232.526 61.4645C230.191 63.7486 227.044 65.4237 221.714 65.4237C215.166 65.4237 207.349 60.9061 207.349 51.8203C207.349 42.5822 215.268 38.0646 221.257 38.0646ZM221.257 44.9171C218.973 44.9171 216.638 46.2368 215.623 48.8763H226.841C226.029 46.2368 223.542 44.9171 221.257 44.9171ZM267.905 38.4199L256.078 64.9161H249.023L237.196 38.4199H245.165L252.576 55.3734L259.936 38.4199H267.905ZM290.746 38.5215H298.766V64.9161H290.746V62.2766C290.391 63.1903 288.005 65.4237 283.945 65.4237C277.904 65.4237 270.95 61.1092 270.95 51.668C270.95 42.5822 277.904 38.0646 283.945 38.0646C288.005 38.0646 290.391 40.3995 290.746 40.9579V38.5215ZM285.112 58.3682C288.411 58.3682 291.102 56.084 291.102 51.668C291.102 47.4043 288.411 45.1201 285.112 45.1201C281.66 45.1201 278.716 47.455 278.716 51.668C278.716 56.0333 281.66 58.3682 285.112 58.3682ZM313.588 65.3221C308.664 65.3221 303.639 62.0228 303.639 53.6476V38.5215H311.659V53.0892C311.659 57.0992 313.029 58.3682 315.567 58.3682C319.171 58.3682 321.252 54.8658 321.76 53.343V38.5215H329.78V64.9161H321.76V60.3478C321.252 61.6167 318.562 65.3221 313.588 65.3221ZM342.977 29.0295V64.9161H334.957V29.0295H342.977ZM360.997 58.2159C362.418 58.2159 363.433 58.0129 364.55 57.7083V64.3577C363.433 64.8653 361.606 65.2206 358.916 65.2206C354.499 65.2206 350.794 63.7486 350.794 55.6272V45.1201H347.089V38.5215H350.794V32.3289H358.814V38.5215H364.448V45.1201H358.814V55.6272C358.814 56.7946 359.119 58.2159 360.997 58.2159Z" fill="white"/>
</g>
<defs>
<clipPath id="clip0_462_82">
<rect width="342.55" height="59.9762" fill="white" transform="translate(22 17)"/>
</clipPath>
</defs>
</svg>
