<svg width="60" height="60" viewBox="0 0 60 60" fill="none" xmlns="http://www.w3.org/2000/svg">
<path d="M42.7266 2.65381C52.8111 7.43068 59.9764 17.7806 59.9764 29.9881C59.9764 46.4418 46.442 59.9762 29.9883 59.9762C24.9461 59.9762 20.1692 58.6493 16.1885 56.5263C17.7808 56.7917 19.6384 57.057 21.2307 57.057C29.9883 57.057 37.6844 53.6071 43.5228 47.7687C49.0958 42.1957 52.5458 34.2342 52.5458 25.742C52.5458 16.9844 49.0958 9.28835 43.5228 3.44995C43.2574 3.18457 42.992 2.91919 42.7266 2.65381Z" fill="white"/>
<path d="M48.2995 35.0303C46.7072 39.2764 44.5841 42.9917 41.3995 45.9109C36.3573 50.9532 29.192 54.1378 21.2305 54.1378C16.9844 54.1378 12.7383 53.3416 9.02298 51.4839C3.71534 46.4417 0.265382 39.2764 0 31.3149C1.06153 32.9072 2.12305 34.2341 3.44996 35.561C9.02298 41.3994 16.9844 44.8494 25.742 44.8494C34.2342 44.8494 42.1957 41.3994 47.7687 35.561C48.0341 35.561 48.0341 35.2957 48.2995 35.0303Z" fill="white"/>
<path d="M29.9881 0C31.0497 0 32.1112 0 33.1727 0C26.8035 1.32691 21.2305 4.24611 16.719 8.75759C11.146 14.3306 7.69607 22.2921 7.69607 30.7843C7.69607 32.6419 7.69607 34.2342 8.22683 36.0919C7.1653 35.2958 6.36916 34.4996 5.30763 33.7035C3.18458 31.5804 1.59229 28.9266 0 26.2728C1.85767 11.4114 14.596 0 29.9881 0Z" fill="white"/>
</svg>
