<svg width="86" height="79" viewBox="0 0 86 79" fill="none" xmlns="http://www.w3.org/2000/svg">
<rect width="86" height="79" fill="black"/>
<path d="M55.7266 12.6538C65.8111 17.4307 72.9764 27.7806 72.9764 39.9881C72.9764 56.4418 59.442 69.9762 42.9883 69.9762C37.9461 69.9762 33.1692 68.6493 29.1885 66.5263C30.7808 66.7917 32.6384 67.057 34.2307 67.057C42.9883 67.057 50.6844 63.6071 56.5228 57.7687C62.0958 52.1957 65.5458 44.2342 65.5458 35.742C65.5458 26.9844 62.0958 19.2884 56.5228 13.45C56.2574 13.1846 55.992 12.9192 55.7266 12.6538Z" fill="white"/>
<path d="M61.2995 45.0303C59.7072 49.2764 57.5841 52.9917 54.3995 55.9109C49.3573 60.9532 42.192 64.1378 34.2305 64.1378C29.9844 64.1378 25.7383 63.3416 22.023 61.4839C16.7153 56.4417 13.2654 49.2764 13 41.3149C14.0615 42.9072 15.1231 44.2341 16.45 45.561C22.023 51.3994 29.9844 54.8494 38.742 54.8494C47.2342 54.8494 55.1957 51.3994 60.7687 45.561C61.0341 45.561 61.0341 45.2957 61.2995 45.0303Z" fill="white"/>
<path d="M42.9881 10C44.0497 10 45.1112 10 46.1727 10C39.8035 11.3269 34.2305 14.2461 29.719 18.7576C24.146 24.3306 20.6961 32.2921 20.6961 40.7843C20.6961 42.6419 20.6961 44.2342 21.2268 46.0919C20.1653 45.2958 19.3692 44.4996 18.3076 43.7035C16.1846 41.5804 14.5923 38.9266 13 36.2728C14.8577 21.4114 27.596 10 42.9881 10Z" fill="white"/>
</svg>
